2018-11-12 23:48:51,787 - avconv_controller.py - DEBUG - results b"ffprobe version 3.2.10-1~deb9u1+rpt1 Copyright (c) 2007-2018 the FFmpeg developers\n  built with gcc 6.3.0 (Raspbian 6.3.0-18+rpi1) 20170516\n  configuration: --prefix=/usr --extra-version='1~deb9u1+rpt1' --toolchain=hardened --libdir=/usr/lib/arm-linux-gnueabihf --incdir=/usr/include/arm-linux-gnueabihf --enable-gpl --disable-stripping --enable-avresample --enable-avisynth --enable-gnutls --enable-ladspa --enable-libass --enable-libbluray --enable-libbs2b --enable-libcaca --enable-libcdio --enable-libebur128 --enable-libflite --enable-libfontconfig --enable-libfreetype --enable-libfribidi --enable-libgme --enable-libgsm --enable-libmp3lame --enable-libopenjpeg --enable-libopenmpt --enable-libopus --enable-libpulse --enable-librubberband --enable-libshine --enable-libsnappy --enable-libsoxr --enable-libspeex --enable-libssh --enable-libtheora --enable-libtwolame --enable-libvorbis --enable-libvpx --enable-libwavpack --enable-libwebp --enable-libx265 --enable-libxvid --enable-libzmq --enable-libzvbi --enable-omx-rpi --enable-mmal --enable-openal --enable-opengl --enable-sdl2 --enable-libdc1394 --enable-libiec61883 --enable-chromaprint --enable-frei0r --enable-libopencv --enable-libx264 --enable-shared\n  libavutil      55. 34.101 / 55. 34.101\n  libavcodec     57. 64.101 / 57. 64.101\n  libavformat    57. 56.101 / 57. 56.101\n  libavdevice    57.  1.100 / 57.  1.100\n  libavfilter     6. 65.100 /  6. 65.100\n  libavresample   3.  1.  0 /  3.  1.  0\n  libswscale      4.  2.100 /  4.  2.100\n  libswresample   2.  3.100 /  2.  3.100\n  libpostproc    54.  1.100 / 54.  1.100\n[avi @ 0x1505e50] Format avi detected only with low score of 1, misdetection possible!\ntests/m1/the_taking_of_pelham_one_two_three.avi: Invalid data found when processing input\n"
2018-11-12 23:48:51,789 - avconv_controller.py - ERROR - duration 'tests/m1/the_taking_of_pelham_one_two_three.avi': 'NoneType' object has no attribute 'group'
2018-11-12 23:48:51,798 - librarian.py - INFO - title card <Surface(182x268x24 SW)>
2018-11-12 23:48:51,800 - librarian.py - DEBUG - name read, The Taking of Pelham One Two Three (1974) for tests/m1/the_taking_of_pelham_one_two_three.avi
2018-11-12 23:48:51,802 - librarian.py - DEBUG - description read, In New York, armed men hijack a subway car and demand a ransom for the passengers. Even if it's paid, how could they get away? for tests/m1/the_taking_of_pelham_one_two_three.avi
2018-11-12 23:48:51,803 - librarian.py - INFO - generating thumbnails
2018-11-12 23:48:51,804 - librarian.py - INFO - ran thumbnail conversion
2018-11-12 23:48:52,226 - avconv_controller.py - DEBUG - results b"ffprobe version 3.2.10-1~deb9u1+rpt1 Copyright (c) 2007-2018 the FFmpeg developers\n  built with gcc 6.3.0 (Raspbian 6.3.0-18+rpi1) 20170516\n  configuration: --prefix=/usr --extra-version='1~deb9u1+rpt1' --toolchain=hardened --libdir=/usr/lib/arm-linux-gnueabihf --incdir=/usr/include/arm-linux-gnueabihf --enable-gpl --disable-stripping --enable-avresample --enable-avisynth --enable-gnutls --enable-ladspa --enable-libass --enable-libbluray --enable-libbs2b --enable-libcaca --enable-libcdio --enable-libebur128 --enable-libflite --enable-libfontconfig --enable-libfreetype --enable-libfribidi --enable-libgme --enable-libgsm --enable-libmp3lame --enable-libopenjpeg --enable-libopenmpt --enable-libopus --enable-libpulse --enable-librubberband --enable-libshine --enable-libsnappy --enable-libsoxr --enable-libspeex --enable-libssh --enable-libtheora --enable-libtwolame --enable-libvorbis --enable-libvpx --enable-libwavpack --enable-libwebp --enable-libx265 --enable-libxvid --enable-libzmq --enable-libzvbi --enable-omx-rpi --enable-mmal --enable-openal --enable-opengl --enable-sdl2 --enable-libdc1394 --enable-libiec61883 --enable-chromaprint --enable-frei0r --enable-libopencv --enable-libx264 --enable-shared\n  libavutil      55. 34.101 / 55. 34.101\n  libavcodec     57. 64.101 / 57. 64.101\n  libavformat    57. 56.101 / 57. 56.101\n  libavdevice    57.  1.100 / 57.  1.100\n  libavfilter     6. 65.100 /  6. 65.100\n  libavresample   3.  1.  0 /  3.  1.  0\n  libswscale      4.  2.100 /  4.  2.100\n  libswresample   2.  3.100 /  2.  3.100\n  libpostproc    54.  1.100 / 54.  1.100\n[avi @ 0xbade50] Format avi detected only with low score of 1, misdetection possible!\ntests/m1/hello2.avi: Invalid data found when processing input\n"
2018-11-12 23:48:52,228 - avconv_controller.py - ERROR - duration 'tests/m1/hello2.avi': 'NoneType' object has no attribute 'group'
2018-11-12 23:48:52,232 - librarian.py - WARNING - no title found
2018-11-12 23:48:52,239 - librarian.py - WARNING - no name found
2018-11-12 23:48:52,240 - librarian.py - WARNING - no description found
2018-11-12 23:48:52,241 - librarian.py - INFO - generating thumbnails
2018-11-12 23:48:52,242 - librarian.py - INFO - ran thumbnail conversion
2018-11-12 23:48:52,245 - librarian.py - INFO - calling imdb for hello 2 avi
2018-11-12 23:48:59,785 - librarian.py - ERROR - imdb image/title/descr results list index out of range
2018-11-12 23:48:59,786 - librarian.py - INFO - checking /home/pi
2018-11-12 23:48:59,787 - librarian.py - INFO - checking for mp4 in /home/pi
2018-11-12 23:49:02,134 - avconv_controller.py - DEBUG - results b"ffprobe version 3.2.10-1~deb9u1+rpt1 Copyright (c) 2007-2018 the FFmpeg developers\n  built with gcc 6.3.0 (Raspbian 6.3.0-18+rpi1) 20170516\n  configuration: --prefix=/usr --extra-version='1~deb9u1+rpt1' --toolchain=hardened --libdir=/usr/lib/arm-linux-gnueabihf --incdir=/usr/include/arm-linux-gnueabihf --enable-gpl --disable-stripping --enable-avresample --enable-avisynth --enable-gnutls --enable-ladspa --enable-libass --enable-libbluray --enable-libbs2b --enable-libcaca --enable-libcdio --enable-libebur128 --enable-libflite --enable-libfontconfig --enable-libfreetype --enable-libfribidi --enable-libgme --enable-libgsm --enable-libmp3lame --enable-libopenjpeg --enable-libopenmpt --enable-libopus --enable-libpulse --enable-librubberband --enable-libshine --enable-libsnappy --enable-libsoxr --enable-libspeex --enable-libssh --enable-libtheora --enable-libtwolame --enable-libvorbis --enable-libvpx --enable-libwavpack --enable-libwebp --enable-libx265 --enable-libxvid --enable-libzmq --enable-libzvbi --enable-omx-rpi --enable-mmal --enable-openal --enable-opengl --enable-sdl2 --enable-libdc1394 --enable-libiec61883 --enable-chromaprint --enable-frei0r --enable-libopencv --enable-libx264 --enable-shared\n  libavutil      55. 34.101 / 55. 34.101\n  libavcodec     57. 64.101 / 57. 64.101\n  libavformat    57. 56.101 / 57. 56.101\n  libavdevice    57.  1.100 / 57.  1.100\n  libavfilter     6. 65.100 /  6. 65.100\n  libavresample   3.  1.  0 /  3.  1.  0\n  libswscale      4.  2.100 /  4.  2.100\n  libswresample   2.  3.100 /  2.  3.100\n  libpostproc    54.  1.100 / 54.  1.100\nInput #0, mov,mp4,m4a,3gp,3g2,mj2, from '/home/pi/BringingUpBaby(1938).mp4':\n  Metadata:\n    major_brand     : isom\n    minor_version   : 512\n    compatible_brands: isomiso2avc1mp41\n    title           : Bringing Up Baby ( 1938) - https://archive.org/details/BringingUpBaby\n    encoder         : Lavf57.21.101\n  Duration: 01:37:54.00, start: 0.000000, bitrate: 830 kb/s\n    Stream #0:0(und): Video: h264 (Constrained Baseline) (avc1 / 0x31637661), yuv420p, 640x480 [SAR 123:124 DAR 41:31], 697 kb/s, 25 fps, 25 tbr, 12800 tbn, 50 tbc (default)\n    Metadata:\n      handler_name    : VideoHandler\n    Stream #0:1(und): Audio: aac (LC) (mp4a / 0x6134706D), 44100 Hz, stereo, fltp, 128 kb/s (default)\n    Metadata:\n      handler_name    : SoundHandler\n"
2018-11-12 23:49:02,160 - avconv_controller.py - DEBUG - duration 01:37:54.00, 1.0, 37.0, 54.0
2018-11-12 23:49:02,173 - librarian.py - WARNING - no title found
2018-11-12 23:49:02,175 - librarian.py - WARNING - no name found
2018-11-12 23:49:02,177 - librarian.py - WARNING - no description found
2018-11-12 23:49:02,181 - librarian.py - INFO - generating thumbnails
2018-11-12 23:49:02,591 - librarian.py - INFO - ran thumbnail conversion
2018-11-12 23:49:02,631 - librarian.py - INFO - calling imdb for Bringing Up Baby( 1938) mp 4
2018-11-12 23:49:14,148 - librarian.py - ERROR - imdb image/title/descr results list index out of range
2018-11-12 23:54:31,460 - video_player_pi2.py - INFO - hello
2018-11-12 23:54:33,190 - avconv_controller.py - INFO - importing avconv/ffmpeg controller
2018-11-12 23:54:34,499 - video_player_pi2.py - DEBUG - loading from config.file.txt
2018-11-12 23:54:34,502 - librarian.py - INFO - checking tests/m1
2018-11-12 23:54:34,502 - librarian.py - INFO - checking for mp4 in tests/m1
2018-11-12 23:54:36,918 - avconv_controller.py - DEBUG - results b"ffprobe version 3.2.10-1~deb9u1+rpt1 Copyright (c) 2007-2018 the FFmpeg developers\n  built with gcc 6.3.0 (Raspbian 6.3.0-18+rpi1) 20170516\n  configuration: --prefix=/usr --extra-version='1~deb9u1+rpt1' --toolchain=hardened --libdir=/usr/lib/arm-linux-gnueabihf --incdir=/usr/include/arm-linux-gnueabihf --enable-gpl --disable-stripping --enable-avresample --enable-avisynth --enable-gnutls --enable-ladspa --enable-libass --enable-libbluray --enable-libbs2b --enable-libcaca --enable-libcdio --enable-libebur128 --enable-libflite --enable-libfontconfig --enable-libfreetype --enable-libfribidi --enable-libgme --enable-libgsm --enable-libmp3lame --enable-libopenjpeg --enable-libopenmpt --enable-libopus --enable-libpulse --enable-librubberband --enable-libshine --enable-libsnappy --enable-libsoxr --enable-libspeex --enable-libssh --enable-libtheora --enable-libtwolame --enable-libvorbis --enable-libvpx --enable-libwavpack --enable-libwebp --enable-libx265 --enable-libxvid --enable-libzmq --enable-libzvbi --enable-omx-rpi --enable-mmal --enable-openal --enable-opengl --enable-sdl2 --enable-libdc1394 --enable-libiec61883 --enable-chromaprint --enable-frei0r --enable-libopencv --enable-libx264 --enable-shared\n  libavutil      55. 34.101 / 55. 34.101\n  libavcodec     57. 64.101 / 57. 64.101\n  libavformat    57. 56.101 / 57. 56.101\n  libavdevice    57.  1.100 / 57.  1.100\n  libavfilter     6. 65.100 /  6. 65.100\n  libavresample   3.  1.  0 /  3.  1.  0\n  libswscale      4.  2.100 /  4.  2.100\n  libswresample   2.  3.100 /  2.  3.100\n  libpostproc    54.  1.100 / 54.  1.100\n[mov,mp4,m4a,3gp,3g2,mj2 @ 0x1e94e50] Format mov,mp4,m4a,3gp,3g2,mj2 detected only with low score of 1, misdetection possible!\n[mov,mp4,m4a,3gp,3g2,mj2 @ 0x1e94e50] moov atom not found\ntests/m1/hello.mp4: Invalid data found when processing input\n"
2018-11-12 23:54:36,976 - avconv_controller.py - ERROR - duration 'tests/m1/hello.mp4': 'NoneType' object has no attribute 'group'
2018-11-12 23:54:37,045 - librarian.py - INFO - title card <Surface(182x268x24 SW)>
2018-11-12 23:54:37,048 - librarian.py - DEBUG - name read, Hello, My Name Is Doris (2015) for tests/m1/hello.mp4
2018-11-12 23:54:37,058 - librarian.py - DEBUG - description read, A self-help seminar inspires a sixty-something woman to romantically pursue her younger co-worker. for tests/m1/hello.mp4
2018-11-12 23:54:37,061 - librarian.py - INFO - generating thumbnails
2018-11-12 23:54:37,063 - librarian.py - INFO - ran thumbnail conversion
2018-11-12 23:54:37,064 - librarian.py - INFO - checking for avi in tests/m1
2018-11-12 23:54:38,160 - avconv_controller.py - DEBUG - results b"ffprobe version 3.2.10-1~deb9u1+rpt1 Copyright (c) 2007-2018 the FFmpeg developers\n  built with gcc 6.3.0 (Raspbian 6.3.0-18+rpi1) 20170516\n  configuration: --prefix=/usr --extra-version='1~deb9u1+rpt1' --toolchain=hardened --libdir=/usr/lib/arm-linux-gnueabihf --incdir=/usr/include/arm-linux-gnueabihf --enable-gpl --disable-stripping --enable-avresample --enable-avisynth --enable-gnutls --enable-ladspa --enable-libass --enable-libbluray --enable-libbs2b --enable-libcaca --enable-libcdio --enable-libebur128 --enable-libflite --enable-libfontconfig --enable-libfreetype --enable-libfribidi --enable-libgme --enable-libgsm --enable-libmp3lame --enable-libopenjpeg --enable-libopenmpt --enable-libopus --enable-libpulse --enable-librubberband --enable-libshine --enable-libsnappy --enable-libsoxr --enable-libspeex --enable-libssh --enable-libtheora --enable-libtwolame --enable-libvorbis --enable-libvpx --enable-libwavpack --enable-libwebp --enable-libx265 --enable-libxvid --enable-libzmq --enable-libzvbi --enable-omx-rpi --enable-mmal --enable-openal --enable-opengl --enable-sdl2 --enable-libdc1394 --enable-libiec61883 --enable-chromaprint --enable-frei0r --enable-libopencv --enable-libx264 --enable-shared\n  libavutil      55. 34.101 / 55. 34.101\n  libavcodec     57. 64.101 / 57. 64.101\n  libavformat    57. 56.101 / 57. 56.101\n  libavdevice    57.  1.100 / 57.  1.100\n  libavfilter     6. 65.100 /  6. 65.100\n  libavresample   3.  1.  0 /  3.  1.  0\n  libswscale      4.  2.100 /  4.  2.100\n  libswresample   2.  3.100 /  2.  3.100\n  libpostproc    54.  1.100 / 54.  1.100\n[avi @ 0x149ce50] Format avi detected only with low score of 1, misdetection possible!\ntests/m1/the_taking_of_pelham_one_two_three.avi: Invalid data found when processing input\n"
2018-11-12 23:54:38,162 - avconv_controller.py - ERROR - duration 'tests/m1/the_taking_of_pelham_one_two_three.avi': 'NoneType' object has no attribute 'group'
2018-11-12 23:54:38,171 - librarian.py - INFO - title card <Surface(182x268x24 SW)>
2018-11-12 23:54:38,173 - librarian.py - DEBUG - name read, The Taking of Pelham One Two Three (1974) for tests/m1/the_taking_of_pelham_one_two_three.avi
2018-11-12 23:54:38,175 - librarian.py - DEBUG - description read, In New York, armed men hijack a subway car and demand a ransom for the passengers. Even if it's paid, how could they get away? for tests/m1/the_taking_of_pelham_one_two_three.avi
2018-11-12 23:54:38,176 - librarian.py - INFO - generating thumbnails
2018-11-12 23:54:38,176 - librarian.py - INFO - ran thumbnail conversion
2018-11-12 23:54:38,797 - avconv_controller.py - DEBUG - results b"ffprobe version 3.2.10-1~deb9u1+rpt1 Copyright (c) 2007-2018 the FFmpeg developers\n  built with gcc 6.3.0 (Raspbian 6.3.0-18+rpi1) 20170516\n  configuration: --prefix=/usr --extra-version='1~deb9u1+rpt1' --toolchain=hardened --libdir=/usr/lib/arm-linux-gnueabihf --incdir=/usr/include/arm-linux-gnueabihf --enable-gpl --disable-stripping --enable-avresample --enable-avisynth --enable-gnutls --enable-ladspa --enable-libass --enable-libbluray --enable-libbs2b --enable-libcaca --enable-libcdio --enable-libebur128 --enable-libflite --enable-libfontconfig --enable-libfreetype --enable-libfribidi --enable-libgme --enable-libgsm --enable-libmp3lame --enable-libopenjpeg --enable-libopenmpt --enable-libopus --enable-libpulse --enable-librubberband --enable-libshine --enable-libsnappy --enable-libsoxr --enable-libspeex --enable-libssh --enable-libtheora --enable-libtwolame --enable-libvorbis --enable-libvpx --enable-libwavpack --enable-libwebp --enable-libx265 --enable-libxvid --enable-libzmq --enable-libzvbi --enable-omx-rpi --enable-mmal --enable-openal --enable-opengl --enable-sdl2 --enable-libdc1394 --enable-libiec61883 --enable-chromaprint --enable-frei0r --enable-libopencv --enable-libx264 --enable-shared\n  libavutil      55. 34.101 / 55. 34.101\n  libavcodec     57. 64.101 / 57. 64.101\n  libavformat    57. 56.101 / 57. 56.101\n  libavdevice    57.  1.100 / 57.  1.100\n  libavfilter     6. 65.100 /  6. 65.100\n  libavresample   3.  1.  0 /  3.  1.  0\n  libswscale      4.  2.100 /  4.  2.100\n  libswresample   2.  3.100 /  2.  3.100\n  libpostproc    54.  1.100 / 54.  1.100\n[avi @ 0x1a1ae50] Format avi detected only with low score of 1, misdetection possible!\ntests/m1/hello2.avi: Invalid data found when processing input\n"
2018-11-12 23:54:38,798 - avconv_controller.py - ERROR - duration 'tests/m1/hello2.avi': 'NoneType' object has no attribute 'group'
2018-11-12 23:54:38,802 - librarian.py - WARNING - no title found
2018-11-12 23:54:38,803 - librarian.py - WARNING - no name found
2018-11-12 23:54:38,804 - librarian.py - WARNING - no description found
2018-11-12 23:54:38,805 - librarian.py - INFO - generating thumbnails
2018-11-12 23:54:38,806 - librarian.py - INFO - ran thumbnail conversion
2018-11-12 23:54:38,831 - librarian.py - INFO - calling imdb for hello 2 avi
2018-11-12 23:54:46,646 - librarian.py - ERROR - imdb image/title/descr results list index out of range
2018-11-12 23:54:46,648 - librarian.py - INFO - checking /home/pi
2018-11-12 23:54:46,648 - librarian.py - INFO - checking for mp4 in /home/pi
2018-11-12 23:54:48,721 - avconv_controller.py - DEBUG - results b"ffprobe version 3.2.10-1~deb9u1+rpt1 Copyright (c) 2007-2018 the FFmpeg developers\n  built with gcc 6.3.0 (Raspbian 6.3.0-18+rpi1) 20170516\n  configuration: --prefix=/usr --extra-version='1~deb9u1+rpt1' --toolchain=hardened --libdir=/usr/lib/arm-linux-gnueabihf --incdir=/usr/include/arm-linux-gnueabihf --enable-gpl --disable-stripping --enable-avresample --enable-avisynth --enable-gnutls --enable-ladspa --enable-libass --enable-libbluray --enable-libbs2b --enable-libcaca --enable-libcdio --enable-libebur128 --enable-libflite --enable-libfontconfig --enable-libfreetype --enable-libfribidi --enable-libgme --enable-libgsm --enable-libmp3lame --enable-libopenjpeg --enable-libopenmpt --enable-libopus --enable-libpulse --enable-librubberband --enable-libshine --enable-libsnappy --enable-libsoxr --enable-libspeex --enable-libssh --enable-libtheora --enable-libtwolame --enable-libvorbis --enable-libvpx --enable-libwavpack --enable-libwebp --enable-libx265 --enable-libxvid --enable-libzmq --enable-libzvbi --enable-omx-rpi --enable-mmal --enable-openal --enable-opengl --enable-sdl2 --enable-libdc1394 --enable-libiec61883 --enable-chromaprint --enable-frei0r --enable-libopencv --enable-libx264 --enable-shared\n  libavutil      55. 34.101 / 55. 34.101\n  libavcodec     57. 64.101 / 57. 64.101\n  libavformat    57. 56.101 / 57. 56.101\n  libavdevice    57.  1.100 / 57.  1.100\n  libavfilter     6. 65.100 /  6. 65.100\n  libavresample   3.  1.  0 /  3.  1.  0\n  libswscale      4.  2.100 /  4.  2.100\n  libswresample   2.  3.100 /  2.  3.100\n  libpostproc    54.  1.100 / 54.  1.100\nInput #0, mov,mp4,m4a,3gp,3g2,mj2, from '/home/pi/BringingUpBaby(1938).mp4':\n  Metadata:\n    major_brand     : isom\n    minor_version   : 512\n    compatible_brands: isomiso2avc1mp41\n    title           : Bringing Up Baby ( 1938) - https://archive.org/details/BringingUpBaby\n    encoder         : Lavf57.21.101\n  Duration: 01:37:54.00, start: 0.000000, bitrate: 830 kb/s\n    Stream #0:0(und): Video: h264 (Constrained Baseline) (avc1 / 0x31637661), yuv420p, 640x480 [SAR 123:124 DAR 41:31], 697 kb/s, 25 fps, 25 tbr, 12800 tbn, 50 tbc (default)\n    Metadata:\n      handler_name    : VideoHandler\n    Stream #0:1(und): Audio: aac (LC) (mp4a / 0x6134706D), 44100 Hz, stereo, fltp, 128 kb/s (default)\n    Metadata:\n      handler_name    : SoundHandler\n"
2018-11-12 23:54:48,777 - avconv_controller.py - DEBUG - duration 01:37:54.00, 1.0, 37.0, 54.0
2018-11-12 23:54:48,813 - librarian.py - WARNING - no title found
2018-11-12 23:54:48,815 - librarian.py - WARNING - no name found
2018-11-12 23:54:48,816 - librarian.py - WARNING - no description found
2018-11-12 23:54:48,818 - librarian.py - INFO - generating thumbnails
2018-11-12 23:54:48,883 - avconv_controller.py - DEBUG - thumbnail at 0
2018-11-12 23:54:48,902 - avconv_controller.py - DEBUG - thumbnail at 250
2018-11-12 23:54:48,921 - avconv_controller.py - DEBUG - thumbnail at 500
2018-11-12 23:54:48,941 - avconv_controller.py - DEBUG - thumbnail at 750
2018-11-12 23:54:48,961 - avconv_controller.py - DEBUG - thumbnail at 1000
2018-11-12 23:54:48,984 - avconv_controller.py - DEBUG - thumbnail at 1250
2018-11-12 23:54:49,007 - avconv_controller.py - DEBUG - thumbnail at 1500
2018-11-12 23:54:49,029 - avconv_controller.py - DEBUG - thumbnail at 1750
2018-11-12 23:54:49,043 - avconv_controller.py - DEBUG - thumbnail at 2000
2018-11-12 23:54:49,061 - avconv_controller.py - DEBUG - thumbnail at 2250
2018-11-12 23:54:49,077 - avconv_controller.py - DEBUG - thumbnail at 2500
2018-11-12 23:54:49,100 - avconv_controller.py - DEBUG - thumbnail at 2750
2018-11-12 23:54:49,122 - avconv_controller.py - DEBUG - thumbnail at 3000
2018-11-12 23:54:49,161 - avconv_controller.py - DEBUG - thumbnail at 3250
2018-11-12 23:54:49,200 - avconv_controller.py - DEBUG - thumbnail at 3500
2018-11-12 23:54:49,215 - avconv_controller.py - DEBUG - thumbnail at 3750
2018-11-12 23:54:49,230 - avconv_controller.py - DEBUG - thumbnail at 4000
2018-11-12 23:54:49,244 - avconv_controller.py - DEBUG - thumbnail at 4250
2018-11-12 23:54:49,259 - avconv_controller.py - DEBUG - thumbnail at 4500
2018-11-12 23:54:49,297 - avconv_controller.py - DEBUG - thumbnail at 4750
2018-11-12 23:54:49,309 - avconv_controller.py - DEBUG - thumbnail at 5000
2018-11-12 23:54:49,320 - avconv_controller.py - DEBUG - thumbnail at 5250
2018-11-12 23:54:49,336 - avconv_controller.py - DEBUG - thumbnail at 5500
2018-11-12 23:54:49,349 - avconv_controller.py - DEBUG - thumbnail at 5750
2018-11-12 23:54:49,350 - librarian.py - INFO - ran thumbnail conversion
2018-11-12 23:54:49,428 - librarian.py - INFO - calling imdb for Bringing Up Baby( 1938) mp 4
2018-11-12 23:55:03,381 - librarian.py - ERROR - imdb image/title/descr results list index out of range
2018-11-13 00:01:38,491 - video_player_pi2.py - INFO - hello
2018-11-13 00:02:15,551 - video_player_pi2.py - INFO - hello
2018-11-13 00:02:16,371 - avconv_controller.py - INFO - importing avconv/ffmpeg controller
2018-11-13 00:02:17,751 - video_player_pi2.py - DEBUG - loading from config.file.txt
2018-11-13 00:02:17,755 - librarian.py - INFO - checking tests/m1
2018-11-13 00:02:17,756 - librarian.py - INFO - checking for mp4 in tests/m1
2018-11-13 00:02:17,760 - avconv_controller.py - DEBUG - determine duration of tests/m1/hello.mp4
2018-11-13 00:02:20,237 - avconv_controller.py - DEBUG - results b"ffprobe version 3.2.10-1~deb9u1+rpt1 Copyright (c) 2007-2018 the FFmpeg developers\n  built with gcc 6.3.0 (Raspbian 6.3.0-18+rpi1) 20170516\n  configuration: --prefix=/usr --extra-version='1~deb9u1+rpt1' --toolchain=hardened --libdir=/usr/lib/arm-linux-gnueabihf --incdir=/usr/include/arm-linux-gnueabihf --enable-gpl --disable-stripping --enable-avresample --enable-avisynth --enable-gnutls --enable-ladspa --enable-libass --enable-libbluray --enable-libbs2b --enable-libcaca --enable-libcdio --enable-libebur128 --enable-libflite --enable-libfontconfig --enable-libfreetype --enable-libfribidi --enable-libgme --enable-libgsm --enable-libmp3lame --enable-libopenjpeg --enable-libopenmpt --enable-libopus --enable-libpulse --enable-librubberband --enable-libshine --enable-libsnappy --enable-libsoxr --enable-libspeex --enable-libssh --enable-libtheora --enable-libtwolame --enable-libvorbis --enable-libvpx --enable-libwavpack --enable-libwebp --enable-libx265 --enable-libxvid --enable-libzmq --enable-libzvbi --enable-omx-rpi --enable-mmal --enable-openal --enable-opengl --enable-sdl2 --enable-libdc1394 --enable-libiec61883 --enable-chromaprint --enable-frei0r --enable-libopencv --enable-libx264 --enable-shared\n  libavutil      55. 34.101 / 55. 34.101\n  libavcodec     57. 64.101 / 57. 64.101\n  libavformat    57. 56.101 / 57. 56.101\n  libavdevice    57.  1.100 / 57.  1.100\n  libavfilter     6. 65.100 /  6. 65.100\n  libavresample   3.  1.  0 /  3.  1.  0\n  libswscale      4.  2.100 /  4.  2.100\n  libswresample   2.  3.100 /  2.  3.100\n  libpostproc    54.  1.100 / 54.  1.100\n[mov,mp4,m4a,3gp,3g2,mj2 @ 0xd0ee50] Format mov,mp4,m4a,3gp,3g2,mj2 detected only with low score of 1, misdetection possible!\n[mov,mp4,m4a,3gp,3g2,mj2 @ 0xd0ee50] moov atom not found\ntests/m1/hello.mp4: Invalid data found when processing input\n"
2018-11-13 00:02:20,318 - avconv_controller.py - ERROR - duration 'tests/m1/hello.mp4': cannot use a string pattern on a bytes-like object
2018-11-13 00:02:20,395 - librarian.py - INFO - title card <Surface(182x268x24 SW)>
2018-11-13 00:02:20,406 - librarian.py - DEBUG - name read, Hello, My Name Is Doris (2015) for tests/m1/hello.mp4
2018-11-13 00:02:20,416 - librarian.py - DEBUG - description read, A self-help seminar inspires a sixty-something woman to romantically pursue her younger co-worker. for tests/m1/hello.mp4
2018-11-13 00:02:20,421 - librarian.py - INFO - generating thumbnails
2018-11-13 00:02:20,423 - librarian.py - INFO - ran thumbnail conversion
2018-11-13 00:02:20,425 - librarian.py - INFO - checking for avi in tests/m1
2018-11-13 00:02:20,429 - avconv_controller.py - DEBUG - determine duration of tests/m1/the_taking_of_pelham_one_two_three.avi
2018-11-13 00:02:21,789 - avconv_controller.py - DEBUG - results b"ffprobe version 3.2.10-1~deb9u1+rpt1 Copyright (c) 2007-2018 the FFmpeg developers\n  built with gcc 6.3.0 (Raspbian 6.3.0-18+rpi1) 20170516\n  configuration: --prefix=/usr --extra-version='1~deb9u1+rpt1' --toolchain=hardened --libdir=/usr/lib/arm-linux-gnueabihf --incdir=/usr/include/arm-linux-gnueabihf --enable-gpl --disable-stripping --enable-avresample --enable-avisynth --enable-gnutls --enable-ladspa --enable-libass --enable-libbluray --enable-libbs2b --enable-libcaca --enable-libcdio --enable-libebur128 --enable-libflite --enable-libfontconfig --enable-libfreetype --enable-libfribidi --enable-libgme --enable-libgsm --enable-libmp3lame --enable-libopenjpeg --enable-libopenmpt --enable-libopus --enable-libpulse --enable-librubberband --enable-libshine --enable-libsnappy --enable-libsoxr --enable-libspeex --enable-libssh --enable-libtheora --enable-libtwolame --enable-libvorbis --enable-libvpx --enable-libwavpack --enable-libwebp --enable-libx265 --enable-libxvid --enable-libzmq --enable-libzvbi --enable-omx-rpi --enable-mmal --enable-openal --enable-opengl --enable-sdl2 --enable-libdc1394 --enable-libiec61883 --enable-chromaprint --enable-frei0r --enable-libopencv --enable-libx264 --enable-shared\n  libavutil      55. 34.101 / 55. 34.101\n  libavcodec     57. 64.101 / 57. 64.101\n  libavformat    57. 56.101 / 57. 56.101\n  libavdevice    57.  1.100 / 57.  1.100\n  libavfilter     6. 65.100 /  6. 65.100\n  libavresample   3.  1.  0 /  3.  1.  0\n  libswscale      4.  2.100 /  4.  2.100\n  libswresample   2.  3.100 /  2.  3.100\n  libpostproc    54.  1.100 / 54.  1.100\n[avi @ 0x10d8e50] Format avi detected only with low score of 1, misdetection possible!\ntests/m1/the_taking_of_pelham_one_two_three.avi: Invalid data found when processing input\n"
2018-11-13 00:02:21,792 - avconv_controller.py - ERROR - duration 'tests/m1/the_taking_of_pelham_one_two_three.avi': cannot use a string pattern on a bytes-like object
2018-11-13 00:02:21,806 - librarian.py - INFO - title card <Surface(182x268x24 SW)>
2018-11-13 00:02:21,810 - librarian.py - DEBUG - name read, The Taking of Pelham One Two Three (1974) for tests/m1/the_taking_of_pelham_one_two_three.avi
2018-11-13 00:02:21,813 - librarian.py - DEBUG - description read, In New York, armed men hijack a subway car and demand a ransom for the passengers. Even if it's paid, how could they get away? for tests/m1/the_taking_of_pelham_one_two_three.avi
2018-11-13 00:02:21,816 - librarian.py - INFO - generating thumbnails
2018-11-13 00:02:21,817 - librarian.py - INFO - ran thumbnail conversion
2018-11-13 00:02:21,829 - avconv_controller.py - DEBUG - determine duration of tests/m1/hello2.avi
2018-11-13 00:02:22,291 - avconv_controller.py - DEBUG - results b"ffprobe version 3.2.10-1~deb9u1+rpt1 Copyright (c) 2007-2018 the FFmpeg developers\n  built with gcc 6.3.0 (Raspbian 6.3.0-18+rpi1) 20170516\n  configuration: --prefix=/usr --extra-version='1~deb9u1+rpt1' --toolchain=hardened --libdir=/usr/lib/arm-linux-gnueabihf --incdir=/usr/include/arm-linux-gnueabihf --enable-gpl --disable-stripping --enable-avresample --enable-avisynth --enable-gnutls --enable-ladspa --enable-libass --enable-libbluray --enable-libbs2b --enable-libcaca --enable-libcdio --enable-libebur128 --enable-libflite --enable-libfontconfig --enable-libfreetype --enable-libfribidi --enable-libgme --enable-libgsm --enable-libmp3lame --enable-libopenjpeg --enable-libopenmpt --enable-libopus --enable-libpulse --enable-librubberband --enable-libshine --enable-libsnappy --enable-libsoxr --enable-libspeex --enable-libssh --enable-libtheora --enable-libtwolame --enable-libvorbis --enable-libvpx --enable-libwavpack --enable-libwebp --enable-libx265 --enable-libxvid --enable-libzmq --enable-libzvbi --enable-omx-rpi --enable-mmal --enable-openal --enable-opengl --enable-sdl2 --enable-libdc1394 --enable-libiec61883 --enable-chromaprint --enable-frei0r --enable-libopencv --enable-libx264 --enable-shared\n  libavutil      55. 34.101 / 55. 34.101\n  libavcodec     57. 64.101 / 57. 64.101\n  libavformat    57. 56.101 / 57. 56.101\n  libavdevice    57.  1.100 / 57.  1.100\n  libavfilter     6. 65.100 /  6. 65.100\n  libavresample   3.  1.  0 /  3.  1.  0\n  libswscale      4.  2.100 /  4.  2.100\n  libswresample   2.  3.100 /  2.  3.100\n  libpostproc    54.  1.100 / 54.  1.100\n[avi @ 0x67be50] Format avi detected only with low score of 1, misdetection possible!\ntests/m1/hello2.avi: Invalid data found when processing input\n"
2018-11-13 00:02:22,293 - avconv_controller.py - ERROR - duration 'tests/m1/hello2.avi': cannot use a string pattern on a bytes-like object
2018-11-13 00:02:22,367 - librarian.py - WARNING - no title found
2018-11-13 00:02:22,368 - librarian.py - WARNING - no name found
2018-11-13 00:02:22,369 - librarian.py - WARNING - no description found
2018-11-13 00:02:22,369 - librarian.py - INFO - generating thumbnails
2018-11-13 00:02:22,370 - librarian.py - INFO - ran thumbnail conversion
2018-11-13 00:02:22,377 - librarian.py - INFO - calling imdb for hello 2 avi
2018-11-13 00:02:34,416 - librarian.py - ERROR - imdb image/title/descr results list index out of range
2018-11-13 00:02:34,417 - librarian.py - INFO - checking /home/pi
2018-11-13 00:02:34,417 - librarian.py - INFO - checking for mp4 in /home/pi
2018-11-13 00:02:34,454 - avconv_controller.py - DEBUG - determine duration of /home/pi/BringingUpBaby(1938).mp4
2018-11-13 00:02:37,380 - avconv_controller.py - DEBUG - results b"ffprobe version 3.2.10-1~deb9u1+rpt1 Copyright (c) 2007-2018 the FFmpeg developers\n  built with gcc 6.3.0 (Raspbian 6.3.0-18+rpi1) 20170516\n  configuration: --prefix=/usr --extra-version='1~deb9u1+rpt1' --toolchain=hardened --libdir=/usr/lib/arm-linux-gnueabihf --incdir=/usr/include/arm-linux-gnueabihf --enable-gpl --disable-stripping --enable-avresample --enable-avisynth --enable-gnutls --enable-ladspa --enable-libass --enable-libbluray --enable-libbs2b --enable-libcaca --enable-libcdio --enable-libebur128 --enable-libflite --enable-libfontconfig --enable-libfreetype --enable-libfribidi --enable-libgme --enable-libgsm --enable-libmp3lame --enable-libopenjpeg --enable-libopenmpt --enable-libopus --enable-libpulse --enable-librubberband --enable-libshine --enable-libsnappy --enable-libsoxr --enable-libspeex --enable-libssh --enable-libtheora --enable-libtwolame --enable-libvorbis --enable-libvpx --enable-libwavpack --enable-libwebp --enable-libx265 --enable-libxvid --enable-libzmq --enable-libzvbi --enable-omx-rpi --enable-mmal --enable-openal --enable-opengl --enable-sdl2 --enable-libdc1394 --enable-libiec61883 --enable-chromaprint --enable-frei0r --enable-libopencv --enable-libx264 --enable-shared\n  libavutil      55. 34.101 / 55. 34.101\n  libavcodec     57. 64.101 / 57. 64.101\n  libavformat    57. 56.101 / 57. 56.101\n  libavdevice    57.  1.100 / 57.  1.100\n  libavfilter     6. 65.100 /  6. 65.100\n  libavresample   3.  1.  0 /  3.  1.  0\n  libswscale      4.  2.100 /  4.  2.100\n  libswresample   2.  3.100 /  2.  3.100\n  libpostproc    54.  1.100 / 54.  1.100\nInput #0, mov,mp4,m4a,3gp,3g2,mj2, from '/home/pi/BringingUpBaby(1938).mp4':\n  Metadata:\n    major_brand     : isom\n    minor_version   : 512\n    compatible_brands: isomiso2avc1mp41\n    title           : Bringing Up Baby ( 1938) - https://archive.org/details/BringingUpBaby\n    encoder         : Lavf57.21.101\n  Duration: 01:37:54.00, start: 0.000000, bitrate: 830 kb/s\n    Stream #0:0(und): Video: h264 (Constrained Baseline) (avc1 / 0x31637661), yuv420p, 640x480 [SAR 123:124 DAR 41:31], 697 kb/s, 25 fps, 25 tbr, 12800 tbn, 50 tbc (default)\n    Metadata:\n      handler_name    : VideoHandler\n    Stream #0:1(und): Audio: aac (LC) (mp4a / 0x6134706D), 44100 Hz, stereo, fltp, 128 kb/s (default)\n    Metadata:\n      handler_name    : SoundHandler\n"
2018-11-13 00:02:37,440 - avconv_controller.py - ERROR - duration '/home/pi/BringingUpBaby(1938).mp4': cannot use a string pattern on a bytes-like object
2018-11-13 00:02:37,457 - librarian.py - WARNING - no title found
2018-11-13 00:02:37,459 - librarian.py - WARNING - no name found
2018-11-13 00:02:37,461 - librarian.py - WARNING - no description found
2018-11-13 00:02:37,462 - librarian.py - INFO - generating thumbnails
2018-11-13 00:02:37,464 - librarian.py - INFO - ran thumbnail conversion
2018-11-13 00:02:37,466 - librarian.py - INFO - calling imdb for Bringing Up Baby( 1938) mp 4
2018-11-13 00:02:45,431 - librarian.py - ERROR - imdb image/title/descr results list index out of range
2018-11-13 00:02:45,433 - avconv_controller.py - DEBUG - determine duration of /home/pi/Timeshift_Series_13_-_5._The_Ladybird_Books_Story_The_Bugs_That_Got_Britain_Reading_b03mp53s_original.mp4
2018-11-13 00:02:48,049 - avconv_controller.py - DEBUG - results b"ffprobe version 3.2.10-1~deb9u1+rpt1 Copyright (c) 2007-2018 the FFmpeg developers\n  built with gcc 6.3.0 (Raspbian 6.3.0-18+rpi1) 20170516\n  configuration: --prefix=/usr --extra-version='1~deb9u1+rpt1' --toolchain=hardened --libdir=/usr/lib/arm-linux-gnueabihf --incdir=/usr/include/arm-linux-gnueabihf --enable-gpl --disable-stripping --enable-avresample --enable-avisynth --enable-gnutls --enable-ladspa --enable-libass --enable-libbluray --enable-libbs2b --enable-libcaca --enable-libcdio --enable-libebur128 --enable-libflite --enable-libfontconfig --enable-libfreetype --enable-libfribidi --enable-libgme --enable-libgsm --enable-libmp3lame --enable-libopenjpeg --enable-libopenmpt --enable-libopus --enable-libpulse --enable-librubberband --enable-libshine --enable-libsnappy --enable-libsoxr --enable-libspeex --enable-libssh --enable-libtheora --enable-libtwolame --enable-libvorbis --enable-libvpx --enable-libwavpack --enable-libwebp --enable-libx265 --enable-libxvid --enable-libzmq --enable-libzvbi --enable-omx-rpi --enable-mmal --enable-openal --enable-opengl --enable-sdl2 --enable-libdc1394 --enable-libiec61883 --enable-chromaprint --enable-frei0r --enable-libopencv --enable-libx264 --enable-shared\n  libavutil      55. 34.101 / 55. 34.101\n  libavcodec     57. 64.101 / 57. 64.101\n  libavformat    57. 56.101 / 57. 56.101\n  libavdevice    57.  1.100 / 57.  1.100\n  libavfilter     6. 65.100 /  6. 65.100\n  libavresample   3.  1.  0 /  3.  1.  0\n  libswscale      4.  2.100 /  4.  2.100\n  libswresample   2.  3.100 /  2.  3.100\n  libpostproc    54.  1.100 / 54.  1.100\nInput #0, mov,mp4,m4a,3gp,3g2,mj2, from '/home/pi/Timeshift_Series_13_-_5._The_Ladybird_Books_Story_The_Bugs_That_Got_Britain_Reading_b03mp53s_original.mp4':\n  Metadata:\n    major_brand     : isom\n    minor_version   : 512\n    compatible_brands: isomiso2avc1mp41\n    encoder         : Lavf57.56.101\n  Duration: 00:58:35.00, start: -0.018667, bitrate: 755 kb/s\n    Stream #0:0(und): Video: h264 (Main) (avc1 / 0x31637661), yuv420p(tv, bt709), 512x288 [SAR 1:1 DAR 16:9], 433 kb/s, 25 fps, 25 tbr, 90k tbn, 50 tbc (default)\n    Metadata:\n      handler_name    : VideoHandler\n    Stream #0:1(eng): Audio: aac (LC) (mp4a / 0x6134706D), 48000 Hz, stereo, fltp, 317 kb/s (default)\n    Metadata:\n      handler_name    : SoundHandler\n"
2018-11-13 00:02:48,105 - avconv_controller.py - ERROR - duration '/home/pi/Timeshift_Series_13_-_5._The_Ladybird_Books_Story_The_Bugs_That_Got_Britain_Reading_b03mp53s_original.mp4': cannot use a string pattern on a bytes-like object
2018-11-13 00:02:48,111 - librarian.py - WARNING - no title found
2018-11-13 00:02:48,113 - librarian.py - WARNING - no name found
2018-11-13 00:02:48,114 - librarian.py - WARNING - no description found
2018-11-13 00:02:48,115 - librarian.py - INFO - generating thumbnails
2018-11-13 00:02:48,116 - librarian.py - INFO - ran thumbnail conversion
2018-11-13 00:02:48,119 - librarian.py - INFO - calling imdb for Timeshift Series 13 - 5  The Ladybird Books Story The Bugs That Got Britain Reading b 03mp 53s original mp 4
2018-11-13 00:02:50,379 - librarian.py - ERROR - imdb image/title/descr results list index out of range
2018-11-13 00:02:50,389 - avconv_controller.py - DEBUG - determine duration of /home/pi/Cinderella.the.Cat.2017.720p.BluRay.x264-[YTS.ME].mp4
2018-11-13 00:02:53,753 - avconv_controller.py - DEBUG - results b"ffprobe version 3.2.10-1~deb9u1+rpt1 Copyright (c) 2007-2018 the FFmpeg developers\n  built with gcc 6.3.0 (Raspbian 6.3.0-18+rpi1) 20170516\n  configuration: --prefix=/usr --extra-version='1~deb9u1+rpt1' --toolchain=hardened --libdir=/usr/lib/arm-linux-gnueabihf --incdir=/usr/include/arm-linux-gnueabihf --enable-gpl --disable-stripping --enable-avresample --enable-avisynth --enable-gnutls --enable-ladspa --enable-libass --enable-libbluray --enable-libbs2b --enable-libcaca --enable-libcdio --enable-libebur128 --enable-libflite --enable-libfontconfig --enable-libfreetype --enable-libfribidi --enable-libgme --enable-libgsm --enable-libmp3lame --enable-libopenjpeg --enable-libopenmpt --enable-libopus --enable-libpulse --enable-librubberband --enable-libshine --enable-libsnappy --enable-libsoxr --enable-libspeex --enable-libssh --enable-libtheora --enable-libtwolame --enable-libvorbis --enable-libvpx --enable-libwavpack --enable-libwebp --enable-libx265 --enable-libxvid --enable-libzmq --enable-libzvbi --enable-omx-rpi --enable-mmal --enable-openal --enable-opengl --enable-sdl2 --enable-libdc1394 --enable-libiec61883 --enable-chromaprint --enable-frei0r --enable-libopencv --enable-libx264 --enable-shared\n  libavutil      55. 34.101 / 55. 34.101\n  libavcodec     57. 64.101 / 57. 64.101\n  libavformat    57. 56.101 / 57. 56.101\n  libavdevice    57.  1.100 / 57.  1.100\n  libavfilter     6. 65.100 /  6. 65.100\n  libavresample   3.  1.  0 /  3.  1.  0\n  libswscale      4.  2.100 /  4.  2.100\n  libswresample   2.  3.100 /  2.  3.100\n  libpostproc    54.  1.100 / 54.  1.100\nInput #0, mov,mp4,m4a,3gp,3g2,mj2, from '/home/pi/Cinderella.the.Cat.2017.720p.BluRay.x264-[YTS.ME].mp4':\n  Metadata:\n    major_brand     : isom\n    minor_version   : 512\n    compatible_brands: isomiso2avc1mp41\n    encoder         : Lavf57.71.100\n  Duration: 01:26:56.03, start: 0.000000, bitrate: 1136 kb/s\n    Stream #0:0(und): Video: h264 (High) (avc1 / 0x31637661), yuv420p, 1280x676 [SAR 1:1 DAR 320:169], 1001 kb/s, 24 fps, 24 tbr, 12288 tbn, 48 tbc (default)\n    Metadata:\n      handler_name    : VideoHandler\n    Stream #0:1(und): Audio: aac (LC) (mp4a / 0x6134706D), 48000 Hz, stereo, fltp, 128 kb/s (default)\n    Metadata:\n      handler_name    : SoundHandler\n"
2018-11-13 00:02:53,802 - avconv_controller.py - ERROR - duration '/home/pi/Cinderella.the.Cat.2017.720p.BluRay.x264-[YTS.ME].mp4': cannot use a string pattern on a bytes-like object
2018-11-13 00:02:53,834 - librarian.py - WARNING - no title found
2018-11-13 00:02:53,835 - librarian.py - WARNING - no name found
2018-11-13 00:02:53,837 - librarian.py - WARNING - no description found
2018-11-13 00:02:53,839 - librarian.py - INFO - generating thumbnails
2018-11-13 00:02:53,850 - librarian.py - INFO - ran thumbnail conversion
2018-11-13 00:02:53,853 - librarian.py - INFO - calling imdb for Cinderella the Cat 2017 720p Blu Ray x 264-[YTS ME] mp 4
2018-11-13 00:02:56,197 - librarian.py - ERROR - imdb image/title/descr results list index out of range
2018-11-13 00:02:56,198 - avconv_controller.py - DEBUG - determine duration of /home/pi/Killing_Eve_Series_1_-_2._Ill_Deal_With_Him_Later_p06kc8mb_original.mp4
2018-11-13 00:02:58,376 - avconv_controller.py - DEBUG - results b"ffprobe version 3.2.10-1~deb9u1+rpt1 Copyright (c) 2007-2018 the FFmpeg developers\n  built with gcc 6.3.0 (Raspbian 6.3.0-18+rpi1) 20170516\n  configuration: --prefix=/usr --extra-version='1~deb9u1+rpt1' --toolchain=hardened --libdir=/usr/lib/arm-linux-gnueabihf --incdir=/usr/include/arm-linux-gnueabihf --enable-gpl --disable-stripping --enable-avresample --enable-avisynth --enable-gnutls --enable-ladspa --enable-libass --enable-libbluray --enable-libbs2b --enable-libcaca --enable-libcdio --enable-libebur128 --enable-libflite --enable-libfontconfig --enable-libfreetype --enable-libfribidi --enable-libgme --enable-libgsm --enable-libmp3lame --enable-libopenjpeg --enable-libopenmpt --enable-libopus --enable-libpulse --enable-librubberband --enable-libshine --enable-libsnappy --enable-libsoxr --enable-libspeex --enable-libssh --enable-libtheora --enable-libtwolame --enable-libvorbis --enable-libvpx --enable-libwavpack --enable-libwebp --enable-libx265 --enable-libxvid --enable-libzmq --enable-libzvbi --enable-omx-rpi --enable-mmal --enable-openal --enable-opengl --enable-sdl2 --enable-libdc1394 --enable-libiec61883 --enable-chromaprint --enable-frei0r --enable-libopencv --enable-libx264 --enable-shared\n  libavutil      55. 34.101 / 55. 34.101\n  libavcodec     57. 64.101 / 57. 64.101\n  libavformat    57. 56.101 / 57. 56.101\n  libavdevice    57.  1.100 / 57.  1.100\n  libavfilter     6. 65.100 /  6. 65.100\n  libavresample   3.  1.  0 /  3.  1.  0\n  libswscale      4.  2.100 /  4.  2.100\n  libswresample   2.  3.100 /  2.  3.100\n  libpostproc    54.  1.100 / 54.  1.100\nInput #0, mov,mp4,m4a,3gp,3g2,mj2, from '/home/pi/Killing_Eve_Series_1_-_2._Ill_Deal_With_Him_Later_p06kc8mb_original.mp4':\n  Metadata:\n    major_brand     : isom\n    minor_version   : 512\n    compatible_brands: isomiso2avc1mp41\n    encoder         : Lavf57.56.101\n  Duration: 00:41:59.80, start: -0.018667, bitrate: 744 kb/s\n    Stream #0:0(und): Video: h264 (Main) (avc1 / 0x31637661), yuv420p(tv, bt709), 512x288 [SAR 1:1 DAR 16:9], 421 kb/s, 25 fps, 25 tbr, 90k tbn, 50 tbc (default)\n    Metadata:\n      handler_name    : VideoHandler\n    Stream #0:1(eng): Audio: aac (LC) (mp4a / 0x6134706D), 48000 Hz, stereo, fltp, 317 kb/s (default)\n    Metadata:\n      handler_name    : SoundHandler\n"
2018-11-13 00:02:58,427 - avconv_controller.py - ERROR - duration '/home/pi/Killing_Eve_Series_1_-_2._Ill_Deal_With_Him_Later_p06kc8mb_original.mp4': cannot use a string pattern on a bytes-like object
2018-11-13 00:02:58,431 - librarian.py - WARNING - no title found
2018-11-13 00:02:58,433 - librarian.py - WARNING - no name found
2018-11-13 00:02:58,435 - librarian.py - WARNING - no description found
2018-11-13 00:02:58,436 - librarian.py - INFO - generating thumbnails
2018-11-13 00:02:58,438 - librarian.py - INFO - ran thumbnail conversion
2018-11-13 00:02:58,440 - librarian.py - INFO - calling imdb for Killing Eve Series 1 - 2  Ill Deal With Him Later p 06kc 8mb original mp 4
2018-11-13 00:03:00,716 - librarian.py - ERROR - imdb image/title/descr results list index out of range
2018-11-13 00:03:00,717 - avconv_controller.py - DEBUG - determine duration of /home/pi/Nigel_Kneale_Time_Shift_Documentary.mp4
2018-11-13 00:03:01,914 - avconv_controller.py - DEBUG - results b"ffprobe version 3.2.10-1~deb9u1+rpt1 Copyright (c) 2007-2018 the FFmpeg developers\n  built with gcc 6.3.0 (Raspbian 6.3.0-18+rpi1) 20170516\n  configuration: --prefix=/usr --extra-version='1~deb9u1+rpt1' --toolchain=hardened --libdir=/usr/lib/arm-linux-gnueabihf --incdir=/usr/include/arm-linux-gnueabihf --enable-gpl --disable-stripping --enable-avresample --enable-avisynth --enable-gnutls --enable-ladspa --enable-libass --enable-libbluray --enable-libbs2b --enable-libcaca --enable-libcdio --enable-libebur128 --enable-libflite --enable-libfontconfig --enable-libfreetype --enable-libfribidi --enable-libgme --enable-libgsm --enable-libmp3lame --enable-libopenjpeg --enable-libopenmpt --enable-libopus --enable-libpulse --enable-librubberband --enable-libshine --enable-libsnappy --enable-libsoxr --enable-libspeex --enable-libssh --enable-libtheora --enable-libtwolame --enable-libvorbis --enable-libvpx --enable-libwavpack --enable-libwebp --enable-libx265 --enable-libxvid --enable-libzmq --enable-libzvbi --enable-omx-rpi --enable-mmal --enable-openal --enable-opengl --enable-sdl2 --enable-libdc1394 --enable-libiec61883 --enable-chromaprint --enable-frei0r --enable-libopencv --enable-libx264 --enable-shared\n  libavutil      55. 34.101 / 55. 34.101\n  libavcodec     57. 64.101 / 57. 64.101\n  libavformat    57. 56.101 / 57. 56.101\n  libavdevice    57.  1.100 / 57.  1.100\n  libavfilter     6. 65.100 /  6. 65.100\n  libavresample   3.  1.  0 /  3.  1.  0\n  libswscale      4.  2.100 /  4.  2.100\n  libswresample   2.  3.100 /  2.  3.100\n  libpostproc    54.  1.100 / 54.  1.100\n[mov,mp4,m4a,3gp,3g2,mj2 @ 0x1d45e50] Format mov,mp4,m4a,3gp,3g2,mj2 detected only with low score of 1, misdetection possible!\n[mov,mp4,m4a,3gp,3g2,mj2 @ 0x1d45e50] moov atom not found\n/home/pi/Nigel_Kneale_Time_Shift_Documentary.mp4: Invalid data found when processing input\n"
2018-11-13 00:03:01,915 - avconv_controller.py - ERROR - duration '/home/pi/Nigel_Kneale_Time_Shift_Documentary.mp4': cannot use a string pattern on a bytes-like object
2018-11-13 00:03:01,919 - librarian.py - WARNING - no title found
2018-11-13 00:03:01,920 - librarian.py - WARNING - no name found
2018-11-13 00:03:01,921 - librarian.py - WARNING - no description found
2018-11-13 00:03:01,922 - librarian.py - INFO - generating thumbnails
2018-11-13 00:03:01,922 - librarian.py - INFO - ran thumbnail conversion
2018-11-13 00:03:01,924 - librarian.py - INFO - calling imdb for Nigel Kneale Time Shift Documentary mp 4
2018-11-13 00:03:03,611 - librarian.py - ERROR - imdb image/title/descr results list index out of range
2018-11-13 00:03:03,612 - avconv_controller.py - DEBUG - determine duration of /home/pi/Hey_Duggee_Series_2_-_15._The_Pizza_Badge_b08v9cr1_original.mp4
2018-11-13 00:03:04,598 - avconv_controller.py - DEBUG - results b"ffprobe version 3.2.10-1~deb9u1+rpt1 Copyright (c) 2007-2018 the FFmpeg developers\n  built with gcc 6.3.0 (Raspbian 6.3.0-18+rpi1) 20170516\n  configuration: --prefix=/usr --extra-version='1~deb9u1+rpt1' --toolchain=hardened --libdir=/usr/lib/arm-linux-gnueabihf --incdir=/usr/include/arm-linux-gnueabihf --enable-gpl --disable-stripping --enable-avresample --enable-avisynth --enable-gnutls --enable-ladspa --enable-libass --enable-libbluray --enable-libbs2b --enable-libcaca --enable-libcdio --enable-libebur128 --enable-libflite --enable-libfontconfig --enable-libfreetype --enable-libfribidi --enable-libgme --enable-libgsm --enable-libmp3lame --enable-libopenjpeg --enable-libopenmpt --enable-libopus --enable-libpulse --enable-librubberband --enable-libshine --enable-libsnappy --enable-libsoxr --enable-libspeex --enable-libssh --enable-libtheora --enable-libtwolame --enable-libvorbis --enable-libvpx --enable-libwavpack --enable-libwebp --enable-libx265 --enable-libxvid --enable-libzmq --enable-libzvbi --enable-omx-rpi --enable-mmal --enable-openal --enable-opengl --enable-sdl2 --enable-libdc1394 --enable-libiec61883 --enable-chromaprint --enable-frei0r --enable-libopencv --enable-libx264 --enable-shared\n  libavutil      55. 34.101 / 55. 34.101\n  libavcodec     57. 64.101 / 57. 64.101\n  libavformat    57. 56.101 / 57. 56.101\n  libavdevice    57.  1.100 / 57.  1.100\n  libavfilter     6. 65.100 /  6. 65.100\n  libavresample   3.  1.  0 /  3.  1.  0\n  libswscale      4.  2.100 /  4.  2.100\n  libswresample   2.  3.100 /  2.  3.100\n  libpostproc    54.  1.100 / 54.  1.100\nInput #0, mov,mp4,m4a,3gp,3g2,mj2, from '/home/pi/Hey_Duggee_Series_2_-_15._The_Pizza_Badge_b08v9cr1_original.mp4':\n  Metadata:\n    major_brand     : isom\n    minor_version   : 512\n    compatible_brands: isomiso2avc1mp41\n    encoder         : Lavf57.56.101\n  Duration: 00:07:00.04, start: -0.018667, bitrate: 591 kb/s\n    Stream #0:0(und): Video: h264 (Main) (avc1 / 0x31637661), yuv420p(tv, bt709), 512x288 [SAR 1:1 DAR 16:9], 269 kb/s, 25 fps, 25 tbr, 90k tbn, 50 tbc (default)\n    Metadata:\n      handler_name    : VideoHandler\n    Stream #0:1(eng): Audio: aac (LC) (mp4a / 0x6134706D), 48000 Hz, stereo, fltp, 317 kb/s (default)\n    Metadata:\n      handler_name    : SoundHandler\n"
2018-11-13 00:03:04,620 - avconv_controller.py - ERROR - duration '/home/pi/Hey_Duggee_Series_2_-_15._The_Pizza_Badge_b08v9cr1_original.mp4': cannot use a string pattern on a bytes-like object
2018-11-13 00:03:04,622 - librarian.py - WARNING - no title found
2018-11-13 00:03:04,622 - librarian.py - WARNING - no name found
2018-11-13 00:03:04,623 - librarian.py - WARNING - no description found
2018-11-13 00:03:04,624 - librarian.py - INFO - generating thumbnails
2018-11-13 00:03:04,625 - librarian.py - INFO - ran thumbnail conversion
2018-11-13 00:03:04,626 - librarian.py - INFO - calling imdb for Hey Duggee Series 2 - 15  The Pizza Badge b 08v 9cr 1 original mp 4
2018-11-13 00:03:06,449 - librarian.py - ERROR - imdb image/title/descr results list index out of range
2018-11-13 00:03:06,451 - avconv_controller.py - DEBUG - determine duration of /home/pi/Last_Chance_Lawyer_NYC_Series_1_-_4._Ill_Rest_when_the_Enemy_Rests_b0bqm539_original.mp4
